<mxfile host="app.diagrams.net" agent="Mozilla/5.0 (Windows NT 10.0; Win64; x64) AppleWebKit/537.36 (KHTML, like Gecko) Chrome/129.0.0.0 Safari/537.36" version="24.7.17">
  <diagram id="C5RBs43oDa-KdzZeNtuy" name="Page-1">
    <mxGraphModel dx="679" dy="293" grid="1" gridSize="10" guides="0" tooltips="1" connect="1" arrows="1" fold="1" page="1" pageScale="1" pageWidth="827" pageHeight="1169" math="0" shadow="0">
      <root>
        <mxCell id="WIyWlLk6GJQsqaUBKTNV-0" />
        <mxCell id="WIyWlLk6GJQsqaUBKTNV-1" parent="WIyWlLk6GJQsqaUBKTNV-0" />
        <mxCell id="7ZxJNs3VHyKRD9COMfkm-7" style="edgeStyle=orthogonalEdgeStyle;rounded=0;orthogonalLoop=1;jettySize=auto;html=1;exitX=0.5;exitY=1;exitDx=0;exitDy=0;entryX=0.5;entryY=0;entryDx=0;entryDy=0;" edge="1" parent="WIyWlLk6GJQsqaUBKTNV-1" source="WIyWlLk6GJQsqaUBKTNV-3" target="7ZxJNs3VHyKRD9COMfkm-1">
          <mxGeometry relative="1" as="geometry" />
        </mxCell>
        <mxCell id="WIyWlLk6GJQsqaUBKTNV-3" value="App calls Controler&#39;s run method" style="rounded=1;whiteSpace=wrap;html=1;fontSize=12;glass=0;strokeWidth=1;shadow=0;" parent="WIyWlLk6GJQsqaUBKTNV-1" vertex="1">
          <mxGeometry x="160" y="80" width="120" height="40" as="geometry" />
        </mxCell>
        <mxCell id="7ZxJNs3VHyKRD9COMfkm-8" style="edgeStyle=orthogonalEdgeStyle;rounded=0;orthogonalLoop=1;jettySize=auto;html=1;exitX=0;exitY=0.5;exitDx=0;exitDy=0;entryX=1;entryY=0.5;entryDx=0;entryDy=0;" edge="1" parent="WIyWlLk6GJQsqaUBKTNV-1" source="7ZxJNs3VHyKRD9COMfkm-1" target="7ZxJNs3VHyKRD9COMfkm-3">
          <mxGeometry relative="1" as="geometry" />
        </mxCell>
        <mxCell id="7ZxJNs3VHyKRD9COMfkm-14" style="edgeStyle=orthogonalEdgeStyle;rounded=0;orthogonalLoop=1;jettySize=auto;html=1;exitX=0.5;exitY=1;exitDx=0;exitDy=0;entryX=0.5;entryY=0;entryDx=0;entryDy=0;" edge="1" parent="WIyWlLk6GJQsqaUBKTNV-1" source="7ZxJNs3VHyKRD9COMfkm-1" target="7ZxJNs3VHyKRD9COMfkm-2">
          <mxGeometry relative="1" as="geometry" />
        </mxCell>
        <mxCell id="7ZxJNs3VHyKRD9COMfkm-1" value="if running" style="rhombus;whiteSpace=wrap;html=1;shadow=0;fontFamily=Helvetica;fontSize=12;align=center;strokeWidth=1;spacing=6;spacingTop=-4;" vertex="1" parent="WIyWlLk6GJQsqaUBKTNV-1">
          <mxGeometry x="170" y="140" width="100" height="80" as="geometry" />
        </mxCell>
        <mxCell id="7ZxJNs3VHyKRD9COMfkm-20" style="edgeStyle=orthogonalEdgeStyle;rounded=0;orthogonalLoop=1;jettySize=auto;html=1;exitX=1;exitY=1;exitDx=0;exitDy=0;" edge="1" parent="WIyWlLk6GJQsqaUBKTNV-1" source="7ZxJNs3VHyKRD9COMfkm-2" target="7ZxJNs3VHyKRD9COMfkm-19">
          <mxGeometry relative="1" as="geometry" />
        </mxCell>
        <mxCell id="7ZxJNs3VHyKRD9COMfkm-2" value="if methodRepete is &quot;&quot;" style="rhombus;whiteSpace=wrap;html=1;shadow=0;fontFamily=Helvetica;fontSize=12;align=center;strokeWidth=1;spacing=6;spacingTop=-4;" vertex="1" parent="WIyWlLk6GJQsqaUBKTNV-1">
          <mxGeometry x="145" y="250" width="150" height="80" as="geometry" />
        </mxCell>
        <mxCell id="7ZxJNs3VHyKRD9COMfkm-3" value="" style="ellipse;html=1;shape=endState;fillColor=#000000;strokeColor=#ff0000;" vertex="1" parent="WIyWlLk6GJQsqaUBKTNV-1">
          <mxGeometry x="100" y="175" width="10" height="10" as="geometry" />
        </mxCell>
        <mxCell id="7ZxJNs3VHyKRD9COMfkm-6" style="edgeStyle=orthogonalEdgeStyle;rounded=0;orthogonalLoop=1;jettySize=auto;html=1;exitX=0.5;exitY=1;exitDx=0;exitDy=0;entryX=0.5;entryY=0;entryDx=0;entryDy=0;" edge="1" parent="WIyWlLk6GJQsqaUBKTNV-1" source="7ZxJNs3VHyKRD9COMfkm-4" target="WIyWlLk6GJQsqaUBKTNV-3">
          <mxGeometry relative="1" as="geometry" />
        </mxCell>
        <mxCell id="7ZxJNs3VHyKRD9COMfkm-4" value="" style="ellipse;shape=doubleEllipse;html=1;dashed=0;whiteSpace=wrap;aspect=fixed;" vertex="1" parent="WIyWlLk6GJQsqaUBKTNV-1">
          <mxGeometry x="210" y="20" width="20" height="20" as="geometry" />
        </mxCell>
        <mxCell id="7ZxJNs3VHyKRD9COMfkm-12" value="no" style="text;html=1;align=center;verticalAlign=middle;whiteSpace=wrap;rounded=0;fontSize=11;" vertex="1" parent="WIyWlLk6GJQsqaUBKTNV-1">
          <mxGeometry x="140" y="170" width="30" height="10" as="geometry" />
        </mxCell>
        <mxCell id="7ZxJNs3VHyKRD9COMfkm-16" value="yes" style="text;html=1;align=center;verticalAlign=middle;whiteSpace=wrap;rounded=0;fontSize=11;" vertex="1" parent="WIyWlLk6GJQsqaUBKTNV-1">
          <mxGeometry x="220" y="220" width="30" height="10" as="geometry" />
        </mxCell>
        <mxCell id="7ZxJNs3VHyKRD9COMfkm-34" style="edgeStyle=orthogonalEdgeStyle;rounded=0;orthogonalLoop=1;jettySize=auto;html=1;exitX=0.5;exitY=1;exitDx=0;exitDy=0;entryX=0.5;entryY=0;entryDx=0;entryDy=0;" edge="1" parent="WIyWlLk6GJQsqaUBKTNV-1" source="7ZxJNs3VHyKRD9COMfkm-18" target="7ZxJNs3VHyKRD9COMfkm-30">
          <mxGeometry relative="1" as="geometry" />
        </mxCell>
        <mxCell id="7ZxJNs3VHyKRD9COMfkm-18" value="action = methodRepete" style="rounded=1;whiteSpace=wrap;html=1;fontSize=12;glass=0;strokeWidth=1;shadow=0;" vertex="1" parent="WIyWlLk6GJQsqaUBKTNV-1">
          <mxGeometry x="70" y="370" width="130" height="40" as="geometry" />
        </mxCell>
        <mxCell id="7ZxJNs3VHyKRD9COMfkm-35" style="edgeStyle=orthogonalEdgeStyle;rounded=0;orthogonalLoop=1;jettySize=auto;html=1;exitX=0.5;exitY=1;exitDx=0;exitDy=0;entryX=0.5;entryY=0;entryDx=0;entryDy=0;" edge="1" parent="WIyWlLk6GJQsqaUBKTNV-1" source="7ZxJNs3VHyKRD9COMfkm-19" target="7ZxJNs3VHyKRD9COMfkm-30">
          <mxGeometry relative="1" as="geometry" />
        </mxCell>
        <mxCell id="7ZxJNs3VHyKRD9COMfkm-19" value="action = veiw.menue()" style="rounded=1;whiteSpace=wrap;html=1;fontSize=12;glass=0;strokeWidth=1;shadow=0;" vertex="1" parent="WIyWlLk6GJQsqaUBKTNV-1">
          <mxGeometry x="240" y="370" width="120" height="40" as="geometry" />
        </mxCell>
        <mxCell id="7ZxJNs3VHyKRD9COMfkm-21" style="edgeStyle=orthogonalEdgeStyle;rounded=0;orthogonalLoop=1;jettySize=auto;html=1;exitX=0;exitY=1;exitDx=0;exitDy=0;entryX=0.547;entryY=-0.078;entryDx=0;entryDy=0;entryPerimeter=0;" edge="1" parent="WIyWlLk6GJQsqaUBKTNV-1" source="7ZxJNs3VHyKRD9COMfkm-2" target="7ZxJNs3VHyKRD9COMfkm-18">
          <mxGeometry relative="1" as="geometry" />
        </mxCell>
        <mxCell id="7ZxJNs3VHyKRD9COMfkm-22" value="yes" style="text;html=1;align=center;verticalAlign=middle;whiteSpace=wrap;rounded=0;fontSize=11;" vertex="1" parent="WIyWlLk6GJQsqaUBKTNV-1">
          <mxGeometry x="260" y="310" width="20" height="10" as="geometry" />
        </mxCell>
        <mxCell id="7ZxJNs3VHyKRD9COMfkm-23" value="no" style="text;html=1;align=center;verticalAlign=middle;whiteSpace=wrap;rounded=0;fontSize=11;" vertex="1" parent="WIyWlLk6GJQsqaUBKTNV-1">
          <mxGeometry x="160" y="310" width="30" height="10" as="geometry" />
        </mxCell>
        <mxCell id="7ZxJNs3VHyKRD9COMfkm-46" style="edgeStyle=orthogonalEdgeStyle;rounded=0;orthogonalLoop=1;jettySize=auto;html=1;exitX=0.5;exitY=1;exitDx=0;exitDy=0;entryX=0;entryY=0.5;entryDx=0;entryDy=0;" edge="1" parent="WIyWlLk6GJQsqaUBKTNV-1" source="7ZxJNs3VHyKRD9COMfkm-30" target="7ZxJNs3VHyKRD9COMfkm-36">
          <mxGeometry relative="1" as="geometry" />
        </mxCell>
        <mxCell id="7ZxJNs3VHyKRD9COMfkm-47" style="edgeStyle=orthogonalEdgeStyle;rounded=0;orthogonalLoop=1;jettySize=auto;html=1;exitX=0.5;exitY=1;exitDx=0;exitDy=0;entryX=0;entryY=0.5;entryDx=0;entryDy=0;" edge="1" parent="WIyWlLk6GJQsqaUBKTNV-1" source="7ZxJNs3VHyKRD9COMfkm-30" target="7ZxJNs3VHyKRD9COMfkm-41">
          <mxGeometry relative="1" as="geometry" />
        </mxCell>
        <mxCell id="7ZxJNs3VHyKRD9COMfkm-48" style="edgeStyle=orthogonalEdgeStyle;rounded=0;orthogonalLoop=1;jettySize=auto;html=1;entryX=0;entryY=0.5;entryDx=0;entryDy=0;" edge="1" parent="WIyWlLk6GJQsqaUBKTNV-1" source="7ZxJNs3VHyKRD9COMfkm-30" target="7ZxJNs3VHyKRD9COMfkm-40">
          <mxGeometry relative="1" as="geometry" />
        </mxCell>
        <mxCell id="7ZxJNs3VHyKRD9COMfkm-49" style="edgeStyle=orthogonalEdgeStyle;rounded=0;orthogonalLoop=1;jettySize=auto;html=1;entryX=0;entryY=0.5;entryDx=0;entryDy=0;" edge="1" parent="WIyWlLk6GJQsqaUBKTNV-1" source="7ZxJNs3VHyKRD9COMfkm-30" target="7ZxJNs3VHyKRD9COMfkm-39">
          <mxGeometry relative="1" as="geometry" />
        </mxCell>
        <mxCell id="7ZxJNs3VHyKRD9COMfkm-50" style="edgeStyle=orthogonalEdgeStyle;rounded=0;orthogonalLoop=1;jettySize=auto;html=1;entryX=0;entryY=0.5;entryDx=0;entryDy=0;" edge="1" parent="WIyWlLk6GJQsqaUBKTNV-1" source="7ZxJNs3VHyKRD9COMfkm-30" target="7ZxJNs3VHyKRD9COMfkm-38">
          <mxGeometry relative="1" as="geometry" />
        </mxCell>
        <mxCell id="7ZxJNs3VHyKRD9COMfkm-51" style="edgeStyle=orthogonalEdgeStyle;rounded=0;orthogonalLoop=1;jettySize=auto;html=1;entryX=0;entryY=0.5;entryDx=0;entryDy=0;" edge="1" parent="WIyWlLk6GJQsqaUBKTNV-1" source="7ZxJNs3VHyKRD9COMfkm-30" target="7ZxJNs3VHyKRD9COMfkm-42">
          <mxGeometry relative="1" as="geometry" />
        </mxCell>
        <mxCell id="7ZxJNs3VHyKRD9COMfkm-30" value="Swich action" style="rhombus;whiteSpace=wrap;html=1;shadow=0;fontFamily=Helvetica;fontSize=12;align=center;strokeWidth=1;spacing=6;spacingTop=-4;" vertex="1" parent="WIyWlLk6GJQsqaUBKTNV-1">
          <mxGeometry x="140" y="450" width="150" height="80" as="geometry" />
        </mxCell>
        <mxCell id="7ZxJNs3VHyKRD9COMfkm-60" style="edgeStyle=orthogonalEdgeStyle;rounded=0;orthogonalLoop=1;jettySize=auto;html=1;exitX=1;exitY=0.5;exitDx=0;exitDy=0;entryX=1;entryY=0.5;entryDx=0;entryDy=0;" edge="1" parent="WIyWlLk6GJQsqaUBKTNV-1" source="7ZxJNs3VHyKRD9COMfkm-36" target="7ZxJNs3VHyKRD9COMfkm-1">
          <mxGeometry relative="1" as="geometry">
            <mxPoint x="550" y="559.6923076923076" as="targetPoint" />
            <Array as="points">
              <mxPoint x="550" y="560" />
              <mxPoint x="550" y="180" />
            </Array>
          </mxGeometry>
        </mxCell>
        <mxCell id="7ZxJNs3VHyKRD9COMfkm-36" value="display()" style="rounded=1;whiteSpace=wrap;html=1;fontSize=12;glass=0;strokeWidth=1;shadow=0;" vertex="1" parent="WIyWlLk6GJQsqaUBKTNV-1">
          <mxGeometry x="260" y="540" width="120" height="40" as="geometry" />
        </mxCell>
        <mxCell id="7ZxJNs3VHyKRD9COMfkm-56" style="edgeStyle=orthogonalEdgeStyle;rounded=0;orthogonalLoop=1;jettySize=auto;html=1;exitX=1;exitY=0.5;exitDx=0;exitDy=0;entryX=1;entryY=0.5;entryDx=0;entryDy=0;" edge="1" parent="WIyWlLk6GJQsqaUBKTNV-1" source="7ZxJNs3VHyKRD9COMfkm-37" target="7ZxJNs3VHyKRD9COMfkm-1">
          <mxGeometry relative="1" as="geometry">
            <mxPoint x="570" y="540" as="targetPoint" />
          </mxGeometry>
        </mxCell>
        <mxCell id="7ZxJNs3VHyKRD9COMfkm-37" value="veiw.message()" style="rounded=1;whiteSpace=wrap;html=1;fontSize=12;glass=0;strokeWidth=1;shadow=0;" vertex="1" parent="WIyWlLk6GJQsqaUBKTNV-1">
          <mxGeometry x="410" y="740" width="120" height="40" as="geometry" />
        </mxCell>
        <mxCell id="7ZxJNs3VHyKRD9COMfkm-52" style="edgeStyle=orthogonalEdgeStyle;rounded=0;orthogonalLoop=1;jettySize=auto;html=1;exitX=1;exitY=0.5;exitDx=0;exitDy=0;entryX=0;entryY=0.5;entryDx=0;entryDy=0;" edge="1" parent="WIyWlLk6GJQsqaUBKTNV-1" source="7ZxJNs3VHyKRD9COMfkm-38" target="7ZxJNs3VHyKRD9COMfkm-37">
          <mxGeometry relative="1" as="geometry" />
        </mxCell>
        <mxCell id="7ZxJNs3VHyKRD9COMfkm-38" value="service.export()" style="rounded=1;whiteSpace=wrap;html=1;fontSize=12;glass=0;strokeWidth=1;shadow=0;" vertex="1" parent="WIyWlLk6GJQsqaUBKTNV-1">
          <mxGeometry x="260" y="740" width="120" height="40" as="geometry" />
        </mxCell>
        <mxCell id="7ZxJNs3VHyKRD9COMfkm-57" style="edgeStyle=orthogonalEdgeStyle;rounded=0;orthogonalLoop=1;jettySize=auto;html=1;entryX=1;entryY=0.5;entryDx=0;entryDy=0;" edge="1" parent="WIyWlLk6GJQsqaUBKTNV-1" source="7ZxJNs3VHyKRD9COMfkm-39" target="7ZxJNs3VHyKRD9COMfkm-1">
          <mxGeometry relative="1" as="geometry">
            <mxPoint x="330" y="200" as="targetPoint" />
            <Array as="points">
              <mxPoint x="550" y="710" />
              <mxPoint x="550" y="180" />
            </Array>
          </mxGeometry>
        </mxCell>
        <mxCell id="7ZxJNs3VHyKRD9COMfkm-39" value="remove()" style="rounded=1;whiteSpace=wrap;html=1;fontSize=12;glass=0;strokeWidth=1;shadow=0;" vertex="1" parent="WIyWlLk6GJQsqaUBKTNV-1">
          <mxGeometry x="260" y="690" width="120" height="40" as="geometry" />
        </mxCell>
        <mxCell id="7ZxJNs3VHyKRD9COMfkm-58" style="edgeStyle=orthogonalEdgeStyle;rounded=0;orthogonalLoop=1;jettySize=auto;html=1;entryX=1;entryY=0.5;entryDx=0;entryDy=0;" edge="1" parent="WIyWlLk6GJQsqaUBKTNV-1" source="7ZxJNs3VHyKRD9COMfkm-40" target="7ZxJNs3VHyKRD9COMfkm-1">
          <mxGeometry relative="1" as="geometry">
            <mxPoint x="550" y="660" as="targetPoint" />
            <Array as="points">
              <mxPoint x="550" y="660" />
              <mxPoint x="550" y="180" />
            </Array>
          </mxGeometry>
        </mxCell>
        <mxCell id="7ZxJNs3VHyKRD9COMfkm-40" value="edit()" style="rounded=1;whiteSpace=wrap;html=1;fontSize=12;glass=0;strokeWidth=1;shadow=0;" vertex="1" parent="WIyWlLk6GJQsqaUBKTNV-1">
          <mxGeometry x="260" y="640" width="120" height="40" as="geometry" />
        </mxCell>
        <mxCell id="7ZxJNs3VHyKRD9COMfkm-59" style="edgeStyle=orthogonalEdgeStyle;rounded=0;orthogonalLoop=1;jettySize=auto;html=1;exitX=1;exitY=0.5;exitDx=0;exitDy=0;entryX=1;entryY=0.5;entryDx=0;entryDy=0;" edge="1" parent="WIyWlLk6GJQsqaUBKTNV-1" source="7ZxJNs3VHyKRD9COMfkm-41" target="7ZxJNs3VHyKRD9COMfkm-1">
          <mxGeometry relative="1" as="geometry">
            <mxPoint x="330" y="230" as="targetPoint" />
            <Array as="points">
              <mxPoint x="550" y="610" />
              <mxPoint x="550" y="180" />
            </Array>
          </mxGeometry>
        </mxCell>
        <mxCell id="7ZxJNs3VHyKRD9COMfkm-41" value="add()" style="rounded=1;whiteSpace=wrap;html=1;fontSize=12;glass=0;strokeWidth=1;shadow=0;" vertex="1" parent="WIyWlLk6GJQsqaUBKTNV-1">
          <mxGeometry x="260" y="590" width="120" height="40" as="geometry" />
        </mxCell>
        <mxCell id="7ZxJNs3VHyKRD9COMfkm-53" style="edgeStyle=orthogonalEdgeStyle;rounded=0;orthogonalLoop=1;jettySize=auto;html=1;exitX=1;exitY=0.5;exitDx=0;exitDy=0;entryX=0;entryY=0.5;entryDx=0;entryDy=0;" edge="1" parent="WIyWlLk6GJQsqaUBKTNV-1" source="7ZxJNs3VHyKRD9COMfkm-42" target="7ZxJNs3VHyKRD9COMfkm-43">
          <mxGeometry relative="1" as="geometry" />
        </mxCell>
        <mxCell id="7ZxJNs3VHyKRD9COMfkm-42" value="service.export()" style="rounded=1;whiteSpace=wrap;html=1;fontSize=12;glass=0;strokeWidth=1;shadow=0;" vertex="1" parent="WIyWlLk6GJQsqaUBKTNV-1">
          <mxGeometry x="260" y="790" width="120" height="40" as="geometry" />
        </mxCell>
        <mxCell id="7ZxJNs3VHyKRD9COMfkm-55" style="edgeStyle=orthogonalEdgeStyle;rounded=0;orthogonalLoop=1;jettySize=auto;html=1;exitX=1;exitY=0.5;exitDx=0;exitDy=0;entryX=1;entryY=0.5;entryDx=0;entryDy=0;" edge="1" parent="WIyWlLk6GJQsqaUBKTNV-1" source="7ZxJNs3VHyKRD9COMfkm-43" target="7ZxJNs3VHyKRD9COMfkm-1">
          <mxGeometry relative="1" as="geometry">
            <mxPoint x="550" y="177.53849909855768" as="targetPoint" />
          </mxGeometry>
        </mxCell>
        <mxCell id="7ZxJNs3VHyKRD9COMfkm-43" value="running = false" style="rounded=1;whiteSpace=wrap;html=1;fontSize=12;glass=0;strokeWidth=1;shadow=0;" vertex="1" parent="WIyWlLk6GJQsqaUBKTNV-1">
          <mxGeometry x="410" y="790" width="120" height="40" as="geometry" />
        </mxCell>
        <mxCell id="7ZxJNs3VHyKRD9COMfkm-70" style="edgeStyle=orthogonalEdgeStyle;rounded=0;orthogonalLoop=1;jettySize=auto;html=1;exitX=0.5;exitY=1;exitDx=0;exitDy=0;entryX=0.5;entryY=0;entryDx=0;entryDy=0;" edge="1" parent="WIyWlLk6GJQsqaUBKTNV-1" source="7ZxJNs3VHyKRD9COMfkm-61" target="7ZxJNs3VHyKRD9COMfkm-64">
          <mxGeometry relative="1" as="geometry" />
        </mxCell>
        <mxCell id="7ZxJNs3VHyKRD9COMfkm-61" value="display()" style="rounded=1;whiteSpace=wrap;html=1;fontSize=12;glass=0;strokeWidth=1;shadow=0;" vertex="1" parent="WIyWlLk6GJQsqaUBKTNV-1">
          <mxGeometry x="740" y="90" width="120" height="40" as="geometry" />
        </mxCell>
        <mxCell id="7ZxJNs3VHyKRD9COMfkm-62" style="edgeStyle=orthogonalEdgeStyle;rounded=0;orthogonalLoop=1;jettySize=auto;html=1;exitX=0.5;exitY=1;exitDx=0;exitDy=0;entryX=0.5;entryY=0;entryDx=0;entryDy=0;" edge="1" parent="WIyWlLk6GJQsqaUBKTNV-1" source="7ZxJNs3VHyKRD9COMfkm-63" target="7ZxJNs3VHyKRD9COMfkm-61">
          <mxGeometry relative="1" as="geometry" />
        </mxCell>
        <mxCell id="7ZxJNs3VHyKRD9COMfkm-63" value="" style="ellipse;shape=doubleEllipse;html=1;dashed=0;whiteSpace=wrap;aspect=fixed;" vertex="1" parent="WIyWlLk6GJQsqaUBKTNV-1">
          <mxGeometry x="790" y="30" width="20" height="20" as="geometry" />
        </mxCell>
        <mxCell id="7ZxJNs3VHyKRD9COMfkm-71" style="edgeStyle=orthogonalEdgeStyle;rounded=0;orthogonalLoop=1;jettySize=auto;html=1;exitX=0.5;exitY=1;exitDx=0;exitDy=0;entryX=0.5;entryY=0;entryDx=0;entryDy=0;" edge="1" parent="WIyWlLk6GJQsqaUBKTNV-1" source="7ZxJNs3VHyKRD9COMfkm-64" target="7ZxJNs3VHyKRD9COMfkm-65">
          <mxGeometry relative="1" as="geometry" />
        </mxCell>
        <mxCell id="7ZxJNs3VHyKRD9COMfkm-64" value="service.getOrders()" style="rounded=1;whiteSpace=wrap;html=1;fontSize=12;glass=0;strokeWidth=1;shadow=0;" vertex="1" parent="WIyWlLk6GJQsqaUBKTNV-1">
          <mxGeometry x="740" y="160" width="120" height="40" as="geometry" />
        </mxCell>
        <mxCell id="7ZxJNs3VHyKRD9COMfkm-72" style="edgeStyle=orthogonalEdgeStyle;rounded=0;orthogonalLoop=1;jettySize=auto;html=1;exitX=0.5;exitY=1;exitDx=0;exitDy=0;entryX=0.5;entryY=0;entryDx=0;entryDy=0;" edge="1" parent="WIyWlLk6GJQsqaUBKTNV-1" source="7ZxJNs3VHyKRD9COMfkm-65" target="7ZxJNs3VHyKRD9COMfkm-69">
          <mxGeometry relative="1" as="geometry" />
        </mxCell>
        <mxCell id="7ZxJNs3VHyKRD9COMfkm-65" value="veiw.displayOrders(...)" style="rounded=1;whiteSpace=wrap;html=1;fontSize=12;glass=0;strokeWidth=1;shadow=0;" vertex="1" parent="WIyWlLk6GJQsqaUBKTNV-1">
          <mxGeometry x="740" y="230" width="120" height="40" as="geometry" />
        </mxCell>
        <mxCell id="7ZxJNs3VHyKRD9COMfkm-69" value="" style="ellipse;html=1;shape=endState;fillColor=#000000;strokeColor=#ff0000;" vertex="1" parent="WIyWlLk6GJQsqaUBKTNV-1">
          <mxGeometry x="790" y="290" width="10" height="10" as="geometry" />
        </mxCell>
        <mxCell id="7ZxJNs3VHyKRD9COMfkm-73" style="edgeStyle=orthogonalEdgeStyle;rounded=0;orthogonalLoop=1;jettySize=auto;html=1;exitX=0.5;exitY=1;exitDx=0;exitDy=0;entryX=0.5;entryY=0;entryDx=0;entryDy=0;" edge="1" parent="WIyWlLk6GJQsqaUBKTNV-1" source="7ZxJNs3VHyKRD9COMfkm-74" target="7ZxJNs3VHyKRD9COMfkm-78">
          <mxGeometry relative="1" as="geometry" />
        </mxCell>
        <mxCell id="7ZxJNs3VHyKRD9COMfkm-74" value="edit()" style="rounded=1;whiteSpace=wrap;html=1;fontSize=12;glass=0;strokeWidth=1;shadow=0;" vertex="1" parent="WIyWlLk6GJQsqaUBKTNV-1">
          <mxGeometry x="980" y="90" width="120" height="40" as="geometry" />
        </mxCell>
        <mxCell id="7ZxJNs3VHyKRD9COMfkm-75" style="edgeStyle=orthogonalEdgeStyle;rounded=0;orthogonalLoop=1;jettySize=auto;html=1;exitX=0.5;exitY=1;exitDx=0;exitDy=0;entryX=0.5;entryY=0;entryDx=0;entryDy=0;" edge="1" parent="WIyWlLk6GJQsqaUBKTNV-1" source="7ZxJNs3VHyKRD9COMfkm-76" target="7ZxJNs3VHyKRD9COMfkm-74">
          <mxGeometry relative="1" as="geometry" />
        </mxCell>
        <mxCell id="7ZxJNs3VHyKRD9COMfkm-76" value="" style="ellipse;shape=doubleEllipse;html=1;dashed=0;whiteSpace=wrap;aspect=fixed;" vertex="1" parent="WIyWlLk6GJQsqaUBKTNV-1">
          <mxGeometry x="1030" y="30" width="20" height="20" as="geometry" />
        </mxCell>
        <mxCell id="7ZxJNs3VHyKRD9COMfkm-77" style="edgeStyle=orthogonalEdgeStyle;rounded=0;orthogonalLoop=1;jettySize=auto;html=1;exitX=0.5;exitY=1;exitDx=0;exitDy=0;entryX=0.5;entryY=0;entryDx=0;entryDy=0;" edge="1" parent="WIyWlLk6GJQsqaUBKTNV-1" source="7ZxJNs3VHyKRD9COMfkm-78" target="7ZxJNs3VHyKRD9COMfkm-82">
          <mxGeometry relative="1" as="geometry">
            <mxPoint x="1040" y="230" as="targetPoint" />
          </mxGeometry>
        </mxCell>
        <mxCell id="7ZxJNs3VHyKRD9COMfkm-78" value="veiw.findOrder()" style="rounded=1;whiteSpace=wrap;html=1;fontSize=12;glass=0;strokeWidth=1;shadow=0;" vertex="1" parent="WIyWlLk6GJQsqaUBKTNV-1">
          <mxGeometry x="980" y="160" width="120" height="40" as="geometry" />
        </mxCell>
        <mxCell id="7ZxJNs3VHyKRD9COMfkm-107" style="edgeStyle=orthogonalEdgeStyle;rounded=0;orthogonalLoop=1;jettySize=auto;html=1;exitX=1;exitY=1;exitDx=0;exitDy=0;" edge="1" parent="WIyWlLk6GJQsqaUBKTNV-1" source="7ZxJNs3VHyKRD9COMfkm-82" target="7ZxJNs3VHyKRD9COMfkm-98">
          <mxGeometry relative="1" as="geometry" />
        </mxCell>
        <mxCell id="7ZxJNs3VHyKRD9COMfkm-141" style="edgeStyle=orthogonalEdgeStyle;rounded=0;orthogonalLoop=1;jettySize=auto;html=1;exitX=0;exitY=1;exitDx=0;exitDy=0;entryX=0.5;entryY=0;entryDx=0;entryDy=0;" edge="1" parent="WIyWlLk6GJQsqaUBKTNV-1" source="7ZxJNs3VHyKRD9COMfkm-82" target="7ZxJNs3VHyKRD9COMfkm-138">
          <mxGeometry relative="1" as="geometry" />
        </mxCell>
        <mxCell id="7ZxJNs3VHyKRD9COMfkm-82" value="service.getOrder(...)" style="rhombus;whiteSpace=wrap;html=1;shadow=0;fontFamily=Helvetica;fontSize=12;align=center;strokeWidth=1;spacing=6;spacingTop=-4;" vertex="1" parent="WIyWlLk6GJQsqaUBKTNV-1">
          <mxGeometry x="970" y="230" width="150" height="80" as="geometry" />
        </mxCell>
        <mxCell id="7ZxJNs3VHyKRD9COMfkm-84" value="" style="ellipse;html=1;shape=endState;fillColor=#000000;strokeColor=#ff0000;" vertex="1" parent="WIyWlLk6GJQsqaUBKTNV-1">
          <mxGeometry x="960" y="500" width="10" height="10" as="geometry" />
        </mxCell>
        <mxCell id="7ZxJNs3VHyKRD9COMfkm-144" style="edgeStyle=orthogonalEdgeStyle;rounded=0;orthogonalLoop=1;jettySize=auto;html=1;exitX=0.5;exitY=1;exitDx=0;exitDy=0;entryX=0;entryY=0.5;entryDx=0;entryDy=0;" edge="1" parent="WIyWlLk6GJQsqaUBKTNV-1" source="7ZxJNs3VHyKRD9COMfkm-87" target="7ZxJNs3VHyKRD9COMfkm-84">
          <mxGeometry relative="1" as="geometry" />
        </mxCell>
        <mxCell id="7ZxJNs3VHyKRD9COMfkm-87" value="methodRepete = &quot;edit&quot;" style="rounded=1;whiteSpace=wrap;html=1;fontSize=12;glass=0;strokeWidth=1;shadow=0;" vertex="1" parent="WIyWlLk6GJQsqaUBKTNV-1">
          <mxGeometry x="730" y="440" width="130" height="40" as="geometry" />
        </mxCell>
        <mxCell id="7ZxJNs3VHyKRD9COMfkm-95" value="no exception" style="text;html=1;align=center;verticalAlign=middle;whiteSpace=wrap;rounded=0;fontSize=11;" vertex="1" parent="WIyWlLk6GJQsqaUBKTNV-1">
          <mxGeometry x="1100" y="290" width="30" height="10" as="geometry" />
        </mxCell>
        <mxCell id="7ZxJNs3VHyKRD9COMfkm-96" value="NoSuchOrder&lt;div&gt;exception&lt;/div&gt;" style="text;html=1;align=center;verticalAlign=middle;whiteSpace=wrap;rounded=0;fontSize=11;" vertex="1" parent="WIyWlLk6GJQsqaUBKTNV-1">
          <mxGeometry x="970" y="290" height="20" as="geometry" />
        </mxCell>
        <mxCell id="7ZxJNs3VHyKRD9COMfkm-108" style="edgeStyle=orthogonalEdgeStyle;rounded=0;orthogonalLoop=1;jettySize=auto;html=1;exitX=0.5;exitY=1;exitDx=0;exitDy=0;entryX=0.5;entryY=0;entryDx=0;entryDy=0;" edge="1" parent="WIyWlLk6GJQsqaUBKTNV-1" source="7ZxJNs3VHyKRD9COMfkm-98" target="7ZxJNs3VHyKRD9COMfkm-99">
          <mxGeometry relative="1" as="geometry" />
        </mxCell>
        <mxCell id="7ZxJNs3VHyKRD9COMfkm-98" value="veiw.userMessage(...)" style="rounded=1;whiteSpace=wrap;html=1;fontSize=12;glass=0;strokeWidth=1;shadow=0;" vertex="1" parent="WIyWlLk6GJQsqaUBKTNV-1">
          <mxGeometry x="1070" y="340" width="130" height="40" as="geometry" />
        </mxCell>
        <mxCell id="7ZxJNs3VHyKRD9COMfkm-109" style="edgeStyle=orthogonalEdgeStyle;rounded=0;orthogonalLoop=1;jettySize=auto;html=1;exitX=0.5;exitY=1;exitDx=0;exitDy=0;entryX=0.5;entryY=0;entryDx=0;entryDy=0;" edge="1" parent="WIyWlLk6GJQsqaUBKTNV-1" source="7ZxJNs3VHyKRD9COMfkm-99" target="7ZxJNs3VHyKRD9COMfkm-100">
          <mxGeometry relative="1" as="geometry" />
        </mxCell>
        <mxCell id="7ZxJNs3VHyKRD9COMfkm-99" value="veiw.displayOrder&lt;span style=&quot;color: rgba(0, 0, 0, 0); font-family: monospace; font-size: 0px; text-align: start; text-wrap: nowrap;&quot;&gt;%3CmxGraphModel%3E%3Croot%3E%3CmxCell%20id%3D%220%22%2F%3E%3CmxCell%20id%3D%221%22%20parent%3D%220%22%2F%3E%3CmxCell%20id%3D%222%22%20value%3D%22veiw.userMessage(...)%22%20style%3D%22rounded%3D1%3BwhiteSpace%3Dwrap%3Bhtml%3D1%3BfontSize%3D12%3Bglass%3D0%3BstrokeWidth%3D1%3Bshadow%3D0%3B%22%20vertex%3D%221%22%20parent%3D%221%22%3E%3CmxGeometry%20x%3D%221070%22%20y%3D%22340%22%20width%3D%22130%22%20height%3D%2240%22%20as%3D%22geometry%22%2F%3E%3C%2FmxCell%3E%3C%2Froot%3E%3C%2FmxGraphModel%3E&lt;/span&gt;(...)" style="rounded=1;whiteSpace=wrap;html=1;fontSize=12;glass=0;strokeWidth=1;shadow=0;" vertex="1" parent="WIyWlLk6GJQsqaUBKTNV-1">
          <mxGeometry x="1070" y="400" width="130" height="40" as="geometry" />
        </mxCell>
        <mxCell id="7ZxJNs3VHyKRD9COMfkm-110" style="edgeStyle=orthogonalEdgeStyle;rounded=0;orthogonalLoop=1;jettySize=auto;html=1;exitX=0.5;exitY=1;exitDx=0;exitDy=0;entryX=0.5;entryY=0;entryDx=0;entryDy=0;" edge="1" parent="WIyWlLk6GJQsqaUBKTNV-1" source="7ZxJNs3VHyKRD9COMfkm-100" target="7ZxJNs3VHyKRD9COMfkm-101">
          <mxGeometry relative="1" as="geometry" />
        </mxCell>
        <mxCell id="7ZxJNs3VHyKRD9COMfkm-100" value="veiw.makeOrder()" style="rounded=1;whiteSpace=wrap;html=1;fontSize=12;glass=0;strokeWidth=1;shadow=0;" vertex="1" parent="WIyWlLk6GJQsqaUBKTNV-1">
          <mxGeometry x="1070" y="460" width="130" height="40" as="geometry" />
        </mxCell>
        <mxCell id="7ZxJNs3VHyKRD9COMfkm-111" style="edgeStyle=orthogonalEdgeStyle;rounded=0;orthogonalLoop=1;jettySize=auto;html=1;exitX=0;exitY=1;exitDx=0;exitDy=0;entryX=0.5;entryY=0;entryDx=0;entryDy=0;" edge="1" parent="WIyWlLk6GJQsqaUBKTNV-1" source="7ZxJNs3VHyKRD9COMfkm-101">
          <mxGeometry relative="1" as="geometry">
            <mxPoint x="1065" y="630" as="targetPoint" />
          </mxGeometry>
        </mxCell>
        <mxCell id="7ZxJNs3VHyKRD9COMfkm-113" style="edgeStyle=orthogonalEdgeStyle;rounded=0;orthogonalLoop=1;jettySize=auto;html=1;exitX=1;exitY=1;exitDx=0;exitDy=0;entryX=1;entryY=0.5;entryDx=0;entryDy=0;" edge="1" parent="WIyWlLk6GJQsqaUBKTNV-1" source="7ZxJNs3VHyKRD9COMfkm-101" target="7ZxJNs3VHyKRD9COMfkm-104">
          <mxGeometry relative="1" as="geometry" />
        </mxCell>
        <mxCell id="7ZxJNs3VHyKRD9COMfkm-101" value="service.replaceOrder(...)" style="rhombus;whiteSpace=wrap;html=1;shadow=0;fontFamily=Helvetica;fontSize=12;align=center;strokeWidth=1;spacing=6;spacingTop=-4;" vertex="1" parent="WIyWlLk6GJQsqaUBKTNV-1">
          <mxGeometry x="1060" y="520" width="160" height="80" as="geometry" />
        </mxCell>
        <mxCell id="7ZxJNs3VHyKRD9COMfkm-104" value="" style="ellipse;html=1;shape=endState;fillColor=#000000;strokeColor=#ff0000;" vertex="1" parent="WIyWlLk6GJQsqaUBKTNV-1">
          <mxGeometry x="1060" y="790" width="10" height="10" as="geometry" />
        </mxCell>
        <mxCell id="7ZxJNs3VHyKRD9COMfkm-112" value="&lt;div&gt;InvalidInput exception&lt;/div&gt;" style="text;html=1;align=center;verticalAlign=middle;whiteSpace=wrap;rounded=0;fontSize=11;" vertex="1" parent="WIyWlLk6GJQsqaUBKTNV-1">
          <mxGeometry x="1020" y="580" width="80" height="20" as="geometry" />
        </mxCell>
        <mxCell id="7ZxJNs3VHyKRD9COMfkm-115" value="no exception" style="text;html=1;align=center;verticalAlign=middle;whiteSpace=wrap;rounded=0;fontSize=11;" vertex="1" parent="WIyWlLk6GJQsqaUBKTNV-1">
          <mxGeometry x="1180" y="570" width="50" height="30" as="geometry" />
        </mxCell>
        <mxCell id="7ZxJNs3VHyKRD9COMfkm-116" style="edgeStyle=orthogonalEdgeStyle;rounded=0;orthogonalLoop=1;jettySize=auto;html=1;exitX=0.5;exitY=1;exitDx=0;exitDy=0;entryX=0.5;entryY=0;entryDx=0;entryDy=0;" edge="1" parent="WIyWlLk6GJQsqaUBKTNV-1" source="7ZxJNs3VHyKRD9COMfkm-117" target="7ZxJNs3VHyKRD9COMfkm-120">
          <mxGeometry relative="1" as="geometry" />
        </mxCell>
        <mxCell id="7ZxJNs3VHyKRD9COMfkm-117" value="add()" style="rounded=1;whiteSpace=wrap;html=1;fontSize=12;glass=0;strokeWidth=1;shadow=0;" vertex="1" parent="WIyWlLk6GJQsqaUBKTNV-1">
          <mxGeometry x="1520" y="100" width="120" height="40" as="geometry" />
        </mxCell>
        <mxCell id="7ZxJNs3VHyKRD9COMfkm-118" style="edgeStyle=orthogonalEdgeStyle;rounded=0;orthogonalLoop=1;jettySize=auto;html=1;exitX=0.5;exitY=1;exitDx=0;exitDy=0;entryX=0.5;entryY=0;entryDx=0;entryDy=0;" edge="1" parent="WIyWlLk6GJQsqaUBKTNV-1" target="7ZxJNs3VHyKRD9COMfkm-117">
          <mxGeometry relative="1" as="geometry">
            <mxPoint x="1580" y="60" as="sourcePoint" />
          </mxGeometry>
        </mxCell>
        <mxCell id="7ZxJNs3VHyKRD9COMfkm-119" style="edgeStyle=orthogonalEdgeStyle;rounded=0;orthogonalLoop=1;jettySize=auto;html=1;exitX=0.5;exitY=1;exitDx=0;exitDy=0;entryX=0.5;entryY=0;entryDx=0;entryDy=0;" edge="1" parent="WIyWlLk6GJQsqaUBKTNV-1" source="7ZxJNs3VHyKRD9COMfkm-120" target="7ZxJNs3VHyKRD9COMfkm-123">
          <mxGeometry relative="1" as="geometry">
            <mxPoint x="1580" y="240" as="targetPoint" />
          </mxGeometry>
        </mxCell>
        <mxCell id="7ZxJNs3VHyKRD9COMfkm-120" value="veiw.makeOrder()" style="rounded=1;whiteSpace=wrap;html=1;fontSize=12;glass=0;strokeWidth=1;shadow=0;" vertex="1" parent="WIyWlLk6GJQsqaUBKTNV-1">
          <mxGeometry x="1520" y="170" width="120" height="40" as="geometry" />
        </mxCell>
        <mxCell id="7ZxJNs3VHyKRD9COMfkm-121" style="edgeStyle=orthogonalEdgeStyle;rounded=0;orthogonalLoop=1;jettySize=auto;html=1;exitX=0;exitY=1;exitDx=0;exitDy=0;entryX=0.5;entryY=0;entryDx=0;entryDy=0;" edge="1" parent="WIyWlLk6GJQsqaUBKTNV-1" source="7ZxJNs3VHyKRD9COMfkm-123">
          <mxGeometry relative="1" as="geometry">
            <mxPoint x="1505" y="350" as="targetPoint" />
            <Array as="points">
              <mxPoint x="1548" y="340" />
              <mxPoint x="1505" y="340" />
            </Array>
          </mxGeometry>
        </mxCell>
        <mxCell id="7ZxJNs3VHyKRD9COMfkm-122" style="edgeStyle=orthogonalEdgeStyle;rounded=0;orthogonalLoop=1;jettySize=auto;html=1;exitX=1;exitY=1;exitDx=0;exitDy=0;" edge="1" parent="WIyWlLk6GJQsqaUBKTNV-1" source="7ZxJNs3VHyKRD9COMfkm-123">
          <mxGeometry relative="1" as="geometry">
            <mxPoint x="1675" y="350" as="targetPoint" />
            <Array as="points">
              <mxPoint x="1623" y="340" />
              <mxPoint x="1675" y="340" />
            </Array>
          </mxGeometry>
        </mxCell>
        <mxCell id="7ZxJNs3VHyKRD9COMfkm-123" value="service.addOrder(...)" style="rhombus;whiteSpace=wrap;html=1;shadow=0;fontFamily=Helvetica;fontSize=12;align=center;strokeWidth=1;spacing=6;spacingTop=-4;" vertex="1" parent="WIyWlLk6GJQsqaUBKTNV-1">
          <mxGeometry x="1510" y="240" width="150" height="80" as="geometry" />
        </mxCell>
        <mxCell id="7ZxJNs3VHyKRD9COMfkm-129" value="OrderAlreadyExists exception" style="text;html=1;align=center;verticalAlign=middle;whiteSpace=wrap;rounded=0;fontSize=11;" vertex="1" parent="WIyWlLk6GJQsqaUBKTNV-1">
          <mxGeometry x="1660" y="310" width="30" height="10" as="geometry" />
        </mxCell>
        <mxCell id="7ZxJNs3VHyKRD9COMfkm-130" value="&lt;div&gt;InvalidInput exception&lt;/div&gt;" style="text;html=1;align=center;verticalAlign=middle;whiteSpace=wrap;rounded=0;fontSize=11;" vertex="1" parent="WIyWlLk6GJQsqaUBKTNV-1">
          <mxGeometry x="1470" y="300" width="80" height="30" as="geometry" />
        </mxCell>
        <mxCell id="7ZxJNs3VHyKRD9COMfkm-137" value="" style="ellipse;shape=doubleEllipse;html=1;dashed=0;whiteSpace=wrap;aspect=fixed;" vertex="1" parent="WIyWlLk6GJQsqaUBKTNV-1">
          <mxGeometry x="1570" y="40" width="20" height="20" as="geometry" />
        </mxCell>
        <mxCell id="7ZxJNs3VHyKRD9COMfkm-142" style="edgeStyle=orthogonalEdgeStyle;rounded=0;orthogonalLoop=1;jettySize=auto;html=1;exitX=0;exitY=1;exitDx=0;exitDy=0;entryX=0.5;entryY=0;entryDx=0;entryDy=0;" edge="1" parent="WIyWlLk6GJQsqaUBKTNV-1" source="7ZxJNs3VHyKRD9COMfkm-138" target="7ZxJNs3VHyKRD9COMfkm-87">
          <mxGeometry relative="1" as="geometry" />
        </mxCell>
        <mxCell id="7ZxJNs3VHyKRD9COMfkm-143" style="edgeStyle=orthogonalEdgeStyle;rounded=0;orthogonalLoop=1;jettySize=auto;html=1;exitX=0.5;exitY=1;exitDx=0;exitDy=0;entryX=0.5;entryY=0;entryDx=0;entryDy=0;" edge="1" parent="WIyWlLk6GJQsqaUBKTNV-1" source="7ZxJNs3VHyKRD9COMfkm-138" target="7ZxJNs3VHyKRD9COMfkm-84">
          <mxGeometry relative="1" as="geometry" />
        </mxCell>
        <mxCell id="7ZxJNs3VHyKRD9COMfkm-138" value="service.userQuestion(...)" style="rhombus;whiteSpace=wrap;html=1;shadow=0;fontFamily=Helvetica;fontSize=12;align=center;strokeWidth=1;spacing=6;spacingTop=-4;" vertex="1" parent="WIyWlLk6GJQsqaUBKTNV-1">
          <mxGeometry x="890" y="340" width="150" height="80" as="geometry" />
        </mxCell>
        <mxCell id="7ZxJNs3VHyKRD9COMfkm-145" value="no" style="text;html=1;align=center;verticalAlign=middle;whiteSpace=wrap;rounded=0;fontSize=11;" vertex="1" parent="WIyWlLk6GJQsqaUBKTNV-1">
          <mxGeometry x="960" y="420" width="30" height="10" as="geometry" />
        </mxCell>
        <mxCell id="7ZxJNs3VHyKRD9COMfkm-146" value="yes" style="text;html=1;align=center;verticalAlign=middle;whiteSpace=wrap;rounded=0;fontSize=11;" vertex="1" parent="WIyWlLk6GJQsqaUBKTNV-1">
          <mxGeometry x="900" y="400" width="30" height="10" as="geometry" />
        </mxCell>
        <mxCell id="7ZxJNs3VHyKRD9COMfkm-155" style="edgeStyle=orthogonalEdgeStyle;rounded=0;orthogonalLoop=1;jettySize=auto;html=1;exitX=0.5;exitY=1;exitDx=0;exitDy=0;entryX=0;entryY=0.5;entryDx=0;entryDy=0;" edge="1" parent="WIyWlLk6GJQsqaUBKTNV-1" source="7ZxJNs3VHyKRD9COMfkm-149" target="7ZxJNs3VHyKRD9COMfkm-104">
          <mxGeometry relative="1" as="geometry" />
        </mxCell>
        <mxCell id="7ZxJNs3VHyKRD9COMfkm-149" value="methodRepete = &quot;edit&quot;" style="rounded=1;whiteSpace=wrap;html=1;fontSize=12;glass=0;strokeWidth=1;shadow=0;" vertex="1" parent="WIyWlLk6GJQsqaUBKTNV-1">
          <mxGeometry x="830" y="730" width="130" height="40" as="geometry" />
        </mxCell>
        <mxCell id="7ZxJNs3VHyKRD9COMfkm-150" style="edgeStyle=orthogonalEdgeStyle;rounded=0;orthogonalLoop=1;jettySize=auto;html=1;exitX=0;exitY=1;exitDx=0;exitDy=0;entryX=0.5;entryY=0;entryDx=0;entryDy=0;" edge="1" parent="WIyWlLk6GJQsqaUBKTNV-1" source="7ZxJNs3VHyKRD9COMfkm-152" target="7ZxJNs3VHyKRD9COMfkm-149">
          <mxGeometry relative="1" as="geometry" />
        </mxCell>
        <mxCell id="7ZxJNs3VHyKRD9COMfkm-151" style="edgeStyle=orthogonalEdgeStyle;rounded=0;orthogonalLoop=1;jettySize=auto;html=1;exitX=0.5;exitY=1;exitDx=0;exitDy=0;entryX=0.5;entryY=0;entryDx=0;entryDy=0;" edge="1" parent="WIyWlLk6GJQsqaUBKTNV-1" source="7ZxJNs3VHyKRD9COMfkm-152">
          <mxGeometry relative="1" as="geometry">
            <mxPoint x="1065" y="790" as="targetPoint" />
          </mxGeometry>
        </mxCell>
        <mxCell id="7ZxJNs3VHyKRD9COMfkm-152" value="service.userQuestion(...)" style="rhombus;whiteSpace=wrap;html=1;shadow=0;fontFamily=Helvetica;fontSize=12;align=center;strokeWidth=1;spacing=6;spacingTop=-4;" vertex="1" parent="WIyWlLk6GJQsqaUBKTNV-1">
          <mxGeometry x="990" y="630" width="150" height="80" as="geometry" />
        </mxCell>
        <mxCell id="7ZxJNs3VHyKRD9COMfkm-153" value="no" style="text;html=1;align=center;verticalAlign=middle;whiteSpace=wrap;rounded=0;fontSize=11;" vertex="1" parent="WIyWlLk6GJQsqaUBKTNV-1">
          <mxGeometry x="1060" y="710" width="30" height="10" as="geometry" />
        </mxCell>
        <mxCell id="7ZxJNs3VHyKRD9COMfkm-154" value="yes" style="text;html=1;align=center;verticalAlign=middle;whiteSpace=wrap;rounded=0;fontSize=11;" vertex="1" parent="WIyWlLk6GJQsqaUBKTNV-1">
          <mxGeometry x="1000" y="690" width="30" height="10" as="geometry" />
        </mxCell>
        <mxCell id="7ZxJNs3VHyKRD9COMfkm-164" value="" style="ellipse;html=1;shape=endState;fillColor=#000000;strokeColor=#ff0000;" vertex="1" parent="WIyWlLk6GJQsqaUBKTNV-1">
          <mxGeometry x="1580" y="520" width="10" height="10" as="geometry" />
        </mxCell>
        <mxCell id="7ZxJNs3VHyKRD9COMfkm-165" style="edgeStyle=orthogonalEdgeStyle;rounded=0;orthogonalLoop=1;jettySize=auto;html=1;exitX=0.5;exitY=1;exitDx=0;exitDy=0;entryX=0;entryY=0.5;entryDx=0;entryDy=0;" edge="1" parent="WIyWlLk6GJQsqaUBKTNV-1" source="7ZxJNs3VHyKRD9COMfkm-166" target="7ZxJNs3VHyKRD9COMfkm-164">
          <mxGeometry relative="1" as="geometry" />
        </mxCell>
        <mxCell id="7ZxJNs3VHyKRD9COMfkm-166" value="methodRepete = &quot;add&quot;" style="rounded=1;whiteSpace=wrap;html=1;fontSize=12;glass=0;strokeWidth=1;shadow=0;" vertex="1" parent="WIyWlLk6GJQsqaUBKTNV-1">
          <mxGeometry x="1270" y="450" width="130" height="40" as="geometry" />
        </mxCell>
        <mxCell id="7ZxJNs3VHyKRD9COMfkm-167" style="edgeStyle=orthogonalEdgeStyle;rounded=0;orthogonalLoop=1;jettySize=auto;html=1;exitX=0;exitY=1;exitDx=0;exitDy=0;entryX=0.5;entryY=0;entryDx=0;entryDy=0;" edge="1" parent="WIyWlLk6GJQsqaUBKTNV-1" source="7ZxJNs3VHyKRD9COMfkm-169" target="7ZxJNs3VHyKRD9COMfkm-166">
          <mxGeometry relative="1" as="geometry" />
        </mxCell>
        <mxCell id="7ZxJNs3VHyKRD9COMfkm-174" style="edgeStyle=orthogonalEdgeStyle;rounded=0;orthogonalLoop=1;jettySize=auto;html=1;exitX=1;exitY=1;exitDx=0;exitDy=0;entryX=0.5;entryY=0;entryDx=0;entryDy=0;" edge="1" parent="WIyWlLk6GJQsqaUBKTNV-1" source="7ZxJNs3VHyKRD9COMfkm-169" target="7ZxJNs3VHyKRD9COMfkm-164">
          <mxGeometry relative="1" as="geometry" />
        </mxCell>
        <mxCell id="7ZxJNs3VHyKRD9COMfkm-169" value="service.userQuestion(...)" style="rhombus;whiteSpace=wrap;html=1;shadow=0;fontFamily=Helvetica;fontSize=12;align=center;strokeWidth=1;spacing=6;spacingTop=-4;" vertex="1" parent="WIyWlLk6GJQsqaUBKTNV-1">
          <mxGeometry x="1430" y="350" width="150" height="80" as="geometry" />
        </mxCell>
        <mxCell id="7ZxJNs3VHyKRD9COMfkm-170" value="no" style="text;html=1;align=center;verticalAlign=middle;whiteSpace=wrap;rounded=0;fontSize=11;" vertex="1" parent="WIyWlLk6GJQsqaUBKTNV-1">
          <mxGeometry x="1540" y="410" width="30" height="10" as="geometry" />
        </mxCell>
        <mxCell id="7ZxJNs3VHyKRD9COMfkm-171" value="yes" style="text;html=1;align=center;verticalAlign=middle;whiteSpace=wrap;rounded=0;fontSize=11;" vertex="1" parent="WIyWlLk6GJQsqaUBKTNV-1">
          <mxGeometry x="1440" y="410" width="30" height="10" as="geometry" />
        </mxCell>
        <mxCell id="7ZxJNs3VHyKRD9COMfkm-175" style="edgeStyle=orthogonalEdgeStyle;rounded=0;orthogonalLoop=1;jettySize=auto;html=1;exitX=0;exitY=1;exitDx=0;exitDy=0;entryX=0.5;entryY=0;entryDx=0;entryDy=0;" edge="1" parent="WIyWlLk6GJQsqaUBKTNV-1" source="7ZxJNs3VHyKRD9COMfkm-172" target="7ZxJNs3VHyKRD9COMfkm-164">
          <mxGeometry relative="1" as="geometry">
            <Array as="points">
              <mxPoint x="1640" y="410" />
              <mxPoint x="1640" y="475" />
              <mxPoint x="1585" y="475" />
            </Array>
          </mxGeometry>
        </mxCell>
        <mxCell id="7ZxJNs3VHyKRD9COMfkm-179" style="edgeStyle=orthogonalEdgeStyle;rounded=0;orthogonalLoop=1;jettySize=auto;html=1;exitX=1;exitY=1;exitDx=0;exitDy=0;entryX=0.5;entryY=0;entryDx=0;entryDy=0;" edge="1" parent="WIyWlLk6GJQsqaUBKTNV-1" source="7ZxJNs3VHyKRD9COMfkm-172" target="7ZxJNs3VHyKRD9COMfkm-173">
          <mxGeometry relative="1" as="geometry">
            <Array as="points">
              <mxPoint x="1765" y="410" />
            </Array>
          </mxGeometry>
        </mxCell>
        <mxCell id="7ZxJNs3VHyKRD9COMfkm-172" value="service.userQuestion(...)" style="rhombus;whiteSpace=wrap;html=1;shadow=0;fontFamily=Helvetica;fontSize=12;align=center;strokeWidth=1;spacing=6;spacingTop=-4;" vertex="1" parent="WIyWlLk6GJQsqaUBKTNV-1">
          <mxGeometry x="1600" y="350" width="150" height="80" as="geometry" />
        </mxCell>
        <mxCell id="7ZxJNs3VHyKRD9COMfkm-181" style="edgeStyle=orthogonalEdgeStyle;rounded=0;orthogonalLoop=1;jettySize=auto;html=1;exitX=0;exitY=0.5;exitDx=0;exitDy=0;entryX=1;entryY=0.5;entryDx=0;entryDy=0;" edge="1" parent="WIyWlLk6GJQsqaUBKTNV-1" source="7ZxJNs3VHyKRD9COMfkm-173" target="7ZxJNs3VHyKRD9COMfkm-164">
          <mxGeometry relative="1" as="geometry" />
        </mxCell>
        <mxCell id="7ZxJNs3VHyKRD9COMfkm-173" value="methodRepete = &quot;add&quot;" style="rounded=1;whiteSpace=wrap;html=1;fontSize=12;glass=0;strokeWidth=1;shadow=0;" vertex="1" parent="WIyWlLk6GJQsqaUBKTNV-1">
          <mxGeometry x="1700" y="510" width="130" height="40" as="geometry" />
        </mxCell>
        <mxCell id="7ZxJNs3VHyKRD9COMfkm-176" value="no" style="text;html=1;align=center;verticalAlign=middle;whiteSpace=wrap;rounded=0;fontSize=11;" vertex="1" parent="WIyWlLk6GJQsqaUBKTNV-1">
          <mxGeometry x="1610" y="410" width="30" height="10" as="geometry" />
        </mxCell>
        <mxCell id="7ZxJNs3VHyKRD9COMfkm-178" value="yes" style="text;html=1;align=center;verticalAlign=middle;whiteSpace=wrap;rounded=0;fontSize=11;" vertex="1" parent="WIyWlLk6GJQsqaUBKTNV-1">
          <mxGeometry x="1710" y="410" width="30" height="10" as="geometry" />
        </mxCell>
        <mxCell id="7ZxJNs3VHyKRD9COMfkm-216" style="edgeStyle=orthogonalEdgeStyle;rounded=0;orthogonalLoop=1;jettySize=auto;html=1;exitX=0.5;exitY=1;exitDx=0;exitDy=0;entryX=0.5;entryY=0;entryDx=0;entryDy=0;" edge="1" parent="WIyWlLk6GJQsqaUBKTNV-1" source="7ZxJNs3VHyKRD9COMfkm-182" target="7ZxJNs3VHyKRD9COMfkm-183">
          <mxGeometry relative="1" as="geometry" />
        </mxCell>
        <mxCell id="7ZxJNs3VHyKRD9COMfkm-182" value="" style="ellipse;shape=doubleEllipse;html=1;dashed=0;whiteSpace=wrap;aspect=fixed;" vertex="1" parent="WIyWlLk6GJQsqaUBKTNV-1">
          <mxGeometry x="1940" y="50" width="20" height="20" as="geometry" />
        </mxCell>
        <mxCell id="7ZxJNs3VHyKRD9COMfkm-215" style="edgeStyle=orthogonalEdgeStyle;rounded=0;orthogonalLoop=1;jettySize=auto;html=1;exitX=0.5;exitY=1;exitDx=0;exitDy=0;entryX=0.5;entryY=0;entryDx=0;entryDy=0;" edge="1" parent="WIyWlLk6GJQsqaUBKTNV-1" source="7ZxJNs3VHyKRD9COMfkm-183" target="7ZxJNs3VHyKRD9COMfkm-184">
          <mxGeometry relative="1" as="geometry" />
        </mxCell>
        <mxCell id="7ZxJNs3VHyKRD9COMfkm-183" value="remove()" style="rounded=1;whiteSpace=wrap;html=1;fontSize=12;glass=0;strokeWidth=1;shadow=0;" vertex="1" parent="WIyWlLk6GJQsqaUBKTNV-1">
          <mxGeometry x="1890" y="110" width="120" height="40" as="geometry" />
        </mxCell>
        <mxCell id="7ZxJNs3VHyKRD9COMfkm-214" style="edgeStyle=orthogonalEdgeStyle;rounded=0;orthogonalLoop=1;jettySize=auto;html=1;exitX=0.5;exitY=1;exitDx=0;exitDy=0;entryX=0.5;entryY=0;entryDx=0;entryDy=0;" edge="1" parent="WIyWlLk6GJQsqaUBKTNV-1" source="7ZxJNs3VHyKRD9COMfkm-184" target="7ZxJNs3VHyKRD9COMfkm-190">
          <mxGeometry relative="1" as="geometry" />
        </mxCell>
        <mxCell id="7ZxJNs3VHyKRD9COMfkm-184" value="veiw.findOrder()" style="rounded=1;whiteSpace=wrap;html=1;fontSize=12;glass=0;strokeWidth=1;shadow=0;" vertex="1" parent="WIyWlLk6GJQsqaUBKTNV-1">
          <mxGeometry x="1890" y="180" width="120" height="40" as="geometry" />
        </mxCell>
        <mxCell id="7ZxJNs3VHyKRD9COMfkm-188" style="edgeStyle=orthogonalEdgeStyle;rounded=0;orthogonalLoop=1;jettySize=auto;html=1;exitX=1;exitY=1;exitDx=0;exitDy=0;" edge="1" parent="WIyWlLk6GJQsqaUBKTNV-1" source="7ZxJNs3VHyKRD9COMfkm-190" target="7ZxJNs3VHyKRD9COMfkm-196">
          <mxGeometry relative="1" as="geometry" />
        </mxCell>
        <mxCell id="7ZxJNs3VHyKRD9COMfkm-189" style="edgeStyle=orthogonalEdgeStyle;rounded=0;orthogonalLoop=1;jettySize=auto;html=1;exitX=0;exitY=1;exitDx=0;exitDy=0;entryX=0.5;entryY=0;entryDx=0;entryDy=0;" edge="1" parent="WIyWlLk6GJQsqaUBKTNV-1" source="7ZxJNs3VHyKRD9COMfkm-190">
          <mxGeometry relative="1" as="geometry">
            <mxPoint x="1875" y="380" as="targetPoint" />
            <Array as="points">
              <mxPoint x="1918" y="370" />
              <mxPoint x="1875" y="370" />
            </Array>
          </mxGeometry>
        </mxCell>
        <mxCell id="7ZxJNs3VHyKRD9COMfkm-190" value="service.getOrder(...)" style="rhombus;whiteSpace=wrap;html=1;shadow=0;fontFamily=Helvetica;fontSize=12;align=center;strokeWidth=1;spacing=6;spacingTop=-4;" vertex="1" parent="WIyWlLk6GJQsqaUBKTNV-1">
          <mxGeometry x="1880" y="270" width="150" height="80" as="geometry" />
        </mxCell>
        <mxCell id="7ZxJNs3VHyKRD9COMfkm-193" value="no exception" style="text;html=1;align=center;verticalAlign=middle;whiteSpace=wrap;rounded=0;fontSize=11;" vertex="1" parent="WIyWlLk6GJQsqaUBKTNV-1">
          <mxGeometry x="2010" y="330" width="30" height="10" as="geometry" />
        </mxCell>
        <mxCell id="7ZxJNs3VHyKRD9COMfkm-194" value="NoSuchOrder&lt;div&gt;exception&lt;/div&gt;" style="text;html=1;align=center;verticalAlign=middle;whiteSpace=wrap;rounded=0;fontSize=11;" vertex="1" parent="WIyWlLk6GJQsqaUBKTNV-1">
          <mxGeometry x="1880" y="330" height="20" as="geometry" />
        </mxCell>
        <mxCell id="7ZxJNs3VHyKRD9COMfkm-212" style="edgeStyle=orthogonalEdgeStyle;rounded=0;orthogonalLoop=1;jettySize=auto;html=1;exitX=0.5;exitY=1;exitDx=0;exitDy=0;entryX=0.5;entryY=0;entryDx=0;entryDy=0;" edge="1" parent="WIyWlLk6GJQsqaUBKTNV-1" source="7ZxJNs3VHyKRD9COMfkm-196" target="7ZxJNs3VHyKRD9COMfkm-211">
          <mxGeometry relative="1" as="geometry" />
        </mxCell>
        <mxCell id="7ZxJNs3VHyKRD9COMfkm-196" value="service.deleteOrder(...)" style="rounded=1;whiteSpace=wrap;html=1;fontSize=12;glass=0;strokeWidth=1;shadow=0;" vertex="1" parent="WIyWlLk6GJQsqaUBKTNV-1">
          <mxGeometry x="1980" y="380" width="130" height="40" as="geometry" />
        </mxCell>
        <mxCell id="7ZxJNs3VHyKRD9COMfkm-213" style="edgeStyle=orthogonalEdgeStyle;rounded=0;orthogonalLoop=1;jettySize=auto;html=1;exitX=0.5;exitY=1;exitDx=0;exitDy=0;entryX=0.5;entryY=0;entryDx=0;entryDy=0;" edge="1" parent="WIyWlLk6GJQsqaUBKTNV-1" source="7ZxJNs3VHyKRD9COMfkm-207" target="7ZxJNs3VHyKRD9COMfkm-211">
          <mxGeometry relative="1" as="geometry" />
        </mxCell>
        <mxCell id="7ZxJNs3VHyKRD9COMfkm-207" value="veiw.userMessage(...)" style="rounded=1;whiteSpace=wrap;html=1;fontSize=12;glass=0;strokeWidth=1;shadow=0;" vertex="1" parent="WIyWlLk6GJQsqaUBKTNV-1">
          <mxGeometry x="1810" y="380" width="130" height="40" as="geometry" />
        </mxCell>
        <mxCell id="7ZxJNs3VHyKRD9COMfkm-211" value="" style="ellipse;html=1;shape=endState;fillColor=#000000;strokeColor=#ff0000;" vertex="1" parent="WIyWlLk6GJQsqaUBKTNV-1">
          <mxGeometry x="1960" y="480" width="10" height="10" as="geometry" />
        </mxCell>
      </root>
    </mxGraphModel>
  </diagram>
</mxfile>
